<?xml version="1.0" standalone="no"?>
<!DOCTYPE svg PUBLIC "-//W3C//DTD SVG 20010904//EN"
 "http://www.w3.org/TR/2001/REC-SVG-20010904/DTD/svg10.dtd">
<svg version="1.0" xmlns="http://www.w3.org/2000/svg"
 width="250.000000pt" height="250.000000pt" viewBox="0 0 250.000000 250.000000"
 preserveAspectRatio="xMidYMid meet">

<g transform="translate(0.000000,250.000000) scale(0.100000,-0.100000)"
fill="#000000" stroke="none">
<path d="M1291 2410 c-285 -60 -526 -268 -653 -563 -76 -176 -128 -420 -115
-544 7 -71 51 -161 122 -251 51 -65 150 -151 203 -175 29 -14 28 -31 -12 -152
-44 -132 -81 -204 -172 -337 -85 -126 -91 -141 -69 -174 51 -79 272 -165 348
-135 34 13 41 30 68 183 27 153 58 255 117 381 43 93 47 98 71 92 14 -4 76 -9
137 -12 125 -6 233 15 330 62 59 29 168 138 229 230 166 250 234 534 190 790
-50 283 -220 496 -465 581 -81 29 -250 41 -329 24z m158 -216 c5 -4 -77 -130
-94 -144 -29 -24 -26 13 5 86 31 69 34 73 59 67 14 -3 28 -7 30 -9z m154 -128
c16 -24 16 -24 -68 -76 -47 -28 -90 -48 -96 -44 -12 7 117 144 137 144 6 0 19
-11 27 -24z m-392 -22 c69 -35 112 -128 95 -201 -20 -80 -98 -142 -179 -143
-111 0 -202 112 -178 220 10 45 50 104 84 122 54 29 124 30 178 2z m379 -170
c19 -49 16 -51 -77 -56 -49 -3 -89 -4 -91 -3 -4 4 140 84 151 85 4 0 12 -12
17 -26z m-232 -259 c17 -27 30 -51 28 -52 -2 -2 -16 2 -33 8 -31 10 -43 37
-43 92 0 26 8 18 48 -48z m-337 -33 c-46 -59 -55 -64 -69 -42 -10 16 -6 22 36
49 63 40 69 38 33 -7z m157 26 c-3 -7 -16 -52 -29 -100 -13 -49 -26 -88 -29
-88 -3 0 -13 12 -22 28 -15 26 -15 30 14 100 23 55 36 72 50 72 12 0 18 -5 16
-12z m-320 -493 c111 -44 202 -82 202 -85 0 -4 -15 -14 -34 -22 -18 -9 -58
-36 -88 -61 l-54 -44 -36 18 c-58 30 -154 125 -208 206 -27 41 -50 79 -50 84
0 5 15 3 33 -4 17 -7 123 -49 235 -92z m271 -177 c37 -117 37 -139 -3 -210
-75 -135 -125 -285 -157 -473 -11 -66 -26 -126 -34 -134 -31 -31 -230 33 -290
93 -31 31 -32 27 65 171 37 55 81 127 98 160 33 67 87 220 98 281 3 21 11 47
15 56 10 19 157 118 175 118 7 0 21 -28 33 -62z m288 -44 c112 -43 203 -82
203 -85 0 -4 -37 -17 -82 -29 -86 -23 -243 -30 -302 -13 -27 8 -30 15 -46 93
-10 47 -23 97 -29 113 l-11 27 33 -13 c17 -7 123 -49 234 -93z"/>
<path d="M890 667 c-34 -97 -76 -186 -147 -309 -26 -45 -43 -87 -41 -100 8
-54 154 -111 190 -74 9 9 26 60 38 113 28 122 62 226 106 322 19 41 34 76 34
78 0 2 -10 7 -22 12 -13 5 -46 18 -74 29 l-52 21 -32 -92z"/>
</g>
</svg>
