<svg xmlns="http://www.w3.org/2000/svg" xmlns:xlink="http://www.w3.org/1999/xlink"  zoomAndPan="magnify" viewBox="0 0 375 188.249992" height="251" preserveAspectRatio="xMidYMid meet" version="1.0"><defs><g/><clipPath id="45196c442b"><path d="M 82 105 L 154 105 L 154 139 L 82 139 Z M 82 105 " clip-rule="nonzero"/></clipPath><clipPath id="5159e1b686"><path d="M 47.613281 59.445312 L 164.320312 22.175781 L 205.226562 150.265625 L 88.523438 187.535156 Z M 47.613281 59.445312 " clip-rule="nonzero"/></clipPath><clipPath id="bebf4d0463"><path d="M 47.613281 59.445312 L 164.320312 22.175781 L 205.226562 150.265625 L 88.523438 187.535156 Z M 47.613281 59.445312 " clip-rule="nonzero"/></clipPath><clipPath id="f82b6a3ce3"><path d="M 80 104 L 155 104 L 155 141 L 80 141 Z M 80 104 " clip-rule="nonzero"/></clipPath><clipPath id="ffc098482f"><path d="M 47.613281 59.445312 L 164.320312 22.175781 L 205.226562 150.265625 L 88.523438 187.535156 Z M 47.613281 59.445312 " clip-rule="nonzero"/></clipPath><clipPath id="3fdbbf3d17"><path d="M 47.613281 59.445312 L 164.320312 22.175781 L 205.226562 150.265625 L 88.523438 187.535156 Z M 47.613281 59.445312 " clip-rule="nonzero"/></clipPath><clipPath id="cf428b4921"><path d="M 81 34 L 179 34 L 179 135 L 81 135 Z M 81 34 " clip-rule="nonzero"/></clipPath><clipPath id="02a48051dd"><path d="M 47.613281 59.445312 L 164.320312 22.175781 L 205.226562 150.265625 L 88.523438 187.535156 Z M 47.613281 59.445312 " clip-rule="nonzero"/></clipPath><clipPath id="d3dac81fbb"><path d="M 47.613281 59.445312 L 164.320312 22.175781 L 205.226562 150.265625 L 88.523438 187.535156 Z M 47.613281 59.445312 " clip-rule="nonzero"/></clipPath><clipPath id="97ca65b81f"><path d="M 80 33 L 181 33 L 181 136 L 80 136 Z M 80 33 " clip-rule="nonzero"/></clipPath><clipPath id="3a983de165"><path d="M 47.613281 59.445312 L 164.320312 22.175781 L 205.226562 150.265625 L 88.523438 187.535156 Z M 47.613281 59.445312 " clip-rule="nonzero"/></clipPath><clipPath id="beee57dafe"><path d="M 47.613281 59.445312 L 164.320312 22.175781 L 205.226562 150.265625 L 88.523438 187.535156 Z M 47.613281 59.445312 " clip-rule="nonzero"/></clipPath><clipPath id="5074f99a30"><path d="M 85 120 L 122 120 L 122 180 L 85 180 Z M 85 120 " clip-rule="nonzero"/></clipPath><clipPath id="44ba68a95a"><path d="M 47.613281 59.445312 L 164.320312 22.175781 L 205.226562 150.265625 L 88.523438 187.535156 Z M 47.613281 59.445312 " clip-rule="nonzero"/></clipPath><clipPath id="763ad7066d"><path d="M 47.613281 59.445312 L 164.320312 22.175781 L 205.226562 150.265625 L 88.523438 187.535156 Z M 47.613281 59.445312 " clip-rule="nonzero"/></clipPath><clipPath id="8bbc15bb9f"><path d="M 84 119 L 124 119 L 124 181 L 84 181 Z M 84 119 " clip-rule="nonzero"/></clipPath><clipPath id="f3df38b4e6"><path d="M 47.613281 59.445312 L 164.320312 22.175781 L 205.226562 150.265625 L 88.523438 187.535156 Z M 47.613281 59.445312 " clip-rule="nonzero"/></clipPath><clipPath id="ab8ba2cb5c"><path d="M 47.613281 59.445312 L 164.320312 22.175781 L 205.226562 150.265625 L 88.523438 187.535156 Z M 47.613281 59.445312 " clip-rule="nonzero"/></clipPath><clipPath id="2fe23016da"><path d="M 91 137 L 116 137 L 116 175 L 91 175 Z M 91 137 " clip-rule="nonzero"/></clipPath><clipPath id="a7b2f99564"><path d="M 47.613281 59.445312 L 164.320312 22.175781 L 205.226562 150.265625 L 88.523438 187.535156 Z M 47.613281 59.445312 " clip-rule="nonzero"/></clipPath><clipPath id="ac927b4e29"><path d="M 47.613281 59.445312 L 164.320312 22.175781 L 205.226562 150.265625 L 88.523438 187.535156 Z M 47.613281 59.445312 " clip-rule="nonzero"/></clipPath><clipPath id="2232ab3b7b"><path d="M 105 54 L 132 54 L 132 80 L 105 80 Z M 105 54 " clip-rule="nonzero"/></clipPath><clipPath id="066b75acb6"><path d="M 47.613281 59.445312 L 164.320312 22.175781 L 205.226562 150.265625 L 88.523438 187.535156 Z M 47.613281 59.445312 " clip-rule="nonzero"/></clipPath><clipPath id="d8676daeff"><path d="M 47.613281 59.445312 L 164.320312 22.175781 L 205.226562 150.265625 L 88.523438 187.535156 Z M 47.613281 59.445312 " clip-rule="nonzero"/></clipPath><clipPath id="b291deadeb"><path d="M 104 52 L 133 52 L 133 81 L 104 81 Z M 104 52 " clip-rule="nonzero"/></clipPath><clipPath id="b70fac670b"><path d="M 47.613281 59.445312 L 164.320312 22.175781 L 205.226562 150.265625 L 88.523438 187.535156 Z M 47.613281 59.445312 " clip-rule="nonzero"/></clipPath><clipPath id="1100996041"><path d="M 47.613281 59.445312 L 164.320312 22.175781 L 205.226562 150.265625 L 88.523438 187.535156 Z M 47.613281 59.445312 " clip-rule="nonzero"/></clipPath><clipPath id="99fafa043f"><path d="M 131 46 L 140 46 L 140 58 L 131 58 Z M 131 46 " clip-rule="nonzero"/></clipPath><clipPath id="a4f382a3fe"><path d="M 47.613281 59.445312 L 164.320312 22.175781 L 205.226562 150.265625 L 88.523438 187.535156 Z M 47.613281 59.445312 " clip-rule="nonzero"/></clipPath><clipPath id="621421ede1"><path d="M 47.613281 59.445312 L 164.320312 22.175781 L 205.226562 150.265625 L 88.523438 187.535156 Z M 47.613281 59.445312 " clip-rule="nonzero"/></clipPath><clipPath id="e94a12bf1c"><path d="M 137 53 L 151 53 L 151 64 L 137 64 Z M 137 53 " clip-rule="nonzero"/></clipPath><clipPath id="e0ea17b1f7"><path d="M 47.613281 59.445312 L 164.320312 22.175781 L 205.226562 150.265625 L 88.523438 187.535156 Z M 47.613281 59.445312 " clip-rule="nonzero"/></clipPath><clipPath id="9ba34cdae7"><path d="M 47.613281 59.445312 L 164.320312 22.175781 L 205.226562 150.265625 L 88.523438 187.535156 Z M 47.613281 59.445312 " clip-rule="nonzero"/></clipPath><clipPath id="a4ff3c94b8"><path d="M 115 83 L 123 83 L 123 97 L 115 97 Z M 115 83 " clip-rule="nonzero"/></clipPath><clipPath id="a33e8fb54c"><path d="M 47.613281 59.445312 L 164.320312 22.175781 L 205.226562 150.265625 L 88.523438 187.535156 Z M 47.613281 59.445312 " clip-rule="nonzero"/></clipPath><clipPath id="39e2a06740"><path d="M 47.613281 59.445312 L 164.320312 22.175781 L 205.226562 150.265625 L 88.523438 187.535156 Z M 47.613281 59.445312 " clip-rule="nonzero"/></clipPath><clipPath id="0dec835f87"><path d="M 106 82 L 115 82 L 115 90 L 106 90 Z M 106 82 " clip-rule="nonzero"/></clipPath><clipPath id="860b1d8e84"><path d="M 47.613281 59.445312 L 164.320312 22.175781 L 205.226562 150.265625 L 88.523438 187.535156 Z M 47.613281 59.445312 " clip-rule="nonzero"/></clipPath><clipPath id="c748de0c71"><path d="M 47.613281 59.445312 L 164.320312 22.175781 L 205.226562 150.265625 L 88.523438 187.535156 Z M 47.613281 59.445312 " clip-rule="nonzero"/></clipPath><clipPath id="9add72b874"><path d="M 130 79 L 136 79 L 136 88 L 130 88 Z M 130 79 " clip-rule="nonzero"/></clipPath><clipPath id="169d558d6a"><path d="M 47.613281 59.445312 L 164.320312 22.175781 L 205.226562 150.265625 L 88.523438 187.535156 Z M 47.613281 59.445312 " clip-rule="nonzero"/></clipPath><clipPath id="1cc64e889a"><path d="M 47.613281 59.445312 L 164.320312 22.175781 L 205.226562 150.265625 L 88.523438 187.535156 Z M 47.613281 59.445312 " clip-rule="nonzero"/></clipPath><clipPath id="6bf75add37"><path d="M 136 65 L 150 65 L 150 72 L 136 72 Z M 136 65 " clip-rule="nonzero"/></clipPath><clipPath id="5deb36f907"><path d="M 47.613281 59.445312 L 164.320312 22.175781 L 205.226562 150.265625 L 88.523438 187.535156 Z M 47.613281 59.445312 " clip-rule="nonzero"/></clipPath><clipPath id="b7968c05fa"><path d="M 47.613281 59.445312 L 164.320312 22.175781 L 205.226562 150.265625 L 88.523438 187.535156 Z M 47.613281 59.445312 " clip-rule="nonzero"/></clipPath></defs><g fill="#ffffff" fill-opacity="1"><g transform="translate(8.136519, 147.062523)"><g><path d="M 34.765625 -103.394531 L 1.292969 -103.394531 C 0.644531 -103.394531 0 -102.75 0 -102.234375 L 0 -84.398438 L 34.765625 -84.398438 C 37.09375 -84.398438 50.019531 -83.75 50.019531 -72.378906 C 50.019531 -61.003906 37.351562 -60.746094 34.765625 -60.746094 L 0 -60.746094 L 0 -1.164062 C 0 -0.644531 0.644531 0 1.292969 0 L 18.09375 0 C 19 0 19.386719 -0.644531 19.386719 -1.164062 L 19.386719 -41.617188 L 34.765625 -41.617188 C 37.222656 -41.617188 69.664062 -42.003906 69.664062 -72.378906 C 69.664062 -102.75 38.902344 -103.394531 34.765625 -103.394531 Z M 34.765625 -103.394531 "/></g></g></g><g fill="#000000" fill-opacity="1"><g transform="translate(2.424332, 141.350336)"><g><path d="M 34.765625 -103.394531 L 1.292969 -103.394531 C 0.644531 -103.394531 0 -102.75 0 -102.234375 L 0 -84.398438 L 34.765625 -84.398438 C 37.09375 -84.398438 50.019531 -83.75 50.019531 -72.378906 C 50.019531 -61.003906 37.351562 -60.746094 34.765625 -60.746094 L 0 -60.746094 L 0 -1.164062 C 0 -0.644531 0.644531 0 1.292969 0 L 18.09375 0 C 19 0 19.386719 -0.644531 19.386719 -1.164062 L 19.386719 -41.617188 L 34.765625 -41.617188 C 37.222656 -41.617188 69.664062 -42.003906 69.664062 -72.378906 C 69.664062 -102.75 38.902344 -103.394531 34.765625 -103.394531 Z M 34.765625 -103.394531 "/></g></g></g><g clip-path="url(#45196c442b)"><g clip-path="url(#5159e1b686)"><g clip-path="url(#bebf4d0463)"><path fill="#ffffff" d="M 82.140625 106.277344 C 82.140625 106.277344 85.027344 114.777344 92.53125 122.324219 C 95.742188 125.554688 99.796875 128.609375 104.839844 130.75 L 120.3125 136.789062 C 137.511719 142.945312 153.699219 134.222656 153.699219 134.222656 L 150.199219 129.996094 L 119.523438 116.910156 L 119.285156 116.800781 L 103.234375 111.097656 L 87.597656 105.550781 L 82.140625 106.277344 " fill-opacity="1" fill-rule="nonzero"/></g></g></g><g clip-path="url(#f82b6a3ce3)"><g clip-path="url(#ffc098482f)"><g clip-path="url(#3fdbbf3d17)"><path fill="#000000" d="M 83.84375 107.273438 C 84.984375 109.941406 87.957031 115.992188 93.398438 121.464844 C 96.9375 125.03125 100.949219 127.777344 105.324219 129.628906 L 120.757812 135.65625 C 130.90625 139.285156 140.738281 137.601562 147.1875 135.539062 C 149.167969 134.90625 150.746094 134.261719 151.769531 133.800781 L 149.445312 130.996094 L 118.832031 117.933594 L 87.46875 106.792969 Z M 147.929688 137.851562 L 147.925781 137.851562 C 141.113281 140.027344 130.722656 141.800781 119.898438 137.933594 L 104.398438 131.875 C 99.707031 129.886719 95.425781 126.964844 91.664062 123.183594 C 84.054688 115.523438 81.109375 107.023438 80.984375 106.667969 C 80.871094 106.328125 80.914062 105.945312 81.105469 105.640625 C 81.300781 105.328125 81.617188 105.125 81.984375 105.074219 L 87.445312 104.34375 C 87.636719 104.320312 87.824219 104.339844 88.011719 104.410156 L 119.695312 115.660156 C 119.722656 115.667969 119.746094 115.679688 119.773438 115.691406 L 120.011719 115.792969 L 150.683594 128.878906 C 150.859375 128.953125 151.015625 129.074219 151.140625 129.222656 L 154.640625 133.449219 C 154.871094 133.726562 154.964844 134.097656 154.894531 134.453125 C 154.824219 134.808594 154.597656 135.113281 154.277344 135.289062 C 154.179688 135.34375 151.8125 136.609375 147.929688 137.851562 " fill-opacity="1" fill-rule="nonzero"/></g></g></g><g clip-path="url(#cf428b4921)"><g clip-path="url(#02a48051dd)"><g clip-path="url(#d3dac81fbb)"><path fill="#000000" d="M 88.222656 71.386719 L 88.023438 71.886719 C 87.339844 73.625 86.707031 75.351562 86.132812 77.078125 C 85.734375 78.21875 85.375 79.363281 85.027344 80.503906 C 84.433594 82.496094 83.914062 84.476562 83.46875 86.433594 C 83.351562 86.980469 83.234375 87.523438 83.117188 88.0625 C 82.777344 89.738281 82.496094 91.386719 82.292969 93.027344 C 81.816406 96.597656 81.660156 100.09375 81.871094 103.46875 C 81.917969 104.417969 82.015625 105.347656 82.128906 106.273438 L 153.699219 134.222656 C 157.484375 131.3125 160.945312 127.761719 164.039062 123.675781 C 166.101562 120.960938 167.992188 118.007812 169.730469 114.855469 C 170.640625 113.179688 171.515625 111.449219 172.339844 109.667969 C 173.035156 108.164062 173.691406 106.628906 174.3125 105.0625 C 174.378906 104.898438 174.445312 104.734375 174.492188 104.570312 C 174.671875 104.132812 174.832031 103.6875 174.992188 103.25 C 175.617188 101.546875 176.152344 99.832031 176.625 98.121094 C 177.078125 96.464844 177.453125 94.800781 177.769531 93.148438 C 178.417969 89.75 178.761719 86.359375 178.835938 83.03125 C 178.914062 79.542969 178.699219 76.128906 178.183594 72.8125 C 177.953125 71.253906 177.644531 69.722656 177.28125 68.21875 C 176.460938 64.847656 175.332031 61.613281 173.90625 58.578125 C 173.214844 57.085938 172.457031 55.652344 171.621094 54.269531 C 166.945312 46.488281 160.132812 40.363281 151.539062 37.003906 C 145.339844 34.574219 138.820312 33.828125 132.378906 34.558594 C 130.179688 34.808594 127.988281 35.226562 125.820312 35.808594 C 124.378906 36.195312 122.949219 36.660156 121.535156 37.195312 C 121.40625 37.238281 121.277344 37.289062 121.144531 37.339844 C 117.984375 38.546875 114.921875 40.105469 111.96875 41.980469 C 110.660156 42.816406 109.371094 43.71875 108.113281 44.675781 C 105.449219 46.71875 102.910156 49.027344 100.558594 51.59375 C 99.464844 52.769531 98.414062 54.003906 97.414062 55.292969 C 97.195312 55.5625 96.976562 55.839844 96.777344 56.128906 C 95.4375 57.882812 94.191406 59.730469 93.027344 61.667969 C 92.566406 62.414062 92.128906 63.183594 91.714844 63.957031 C 90.859375 65.5 90.070312 67.097656 89.332031 68.742188 C 88.945312 69.613281 88.574219 70.492188 88.222656 71.386719 " fill-opacity="1" fill-rule="nonzero"/></g></g></g><g clip-path="url(#97ca65b81f)"><g clip-path="url(#3a983de165)"><g clip-path="url(#beee57dafe)"><path fill="#000000" d="M 83.253906 105.402344 L 153.5 132.839844 C 156.9375 130.117188 160.152344 126.792969 163.070312 122.941406 C 165.035156 120.351562 166.914062 117.4375 168.660156 114.269531 C 169.582031 112.585938 170.445312 110.867188 171.230469 109.164062 C 171.917969 107.6875 172.570312 106.160156 173.179688 104.617188 C 173.234375 104.472656 173.292969 104.335938 173.335938 104.203125 C 173.34375 104.171875 173.355469 104.144531 173.367188 104.117188 C 173.535156 103.699219 173.683594 103.273438 173.84375 102.851562 C 174.433594 101.242188 174.957031 99.597656 175.449219 97.804688 C 175.871094 96.269531 176.25 94.625 176.570312 92.925781 C 177.195312 89.664062 177.546875 86.328125 177.621094 83.003906 C 177.699219 79.617188 177.484375 76.25 176.984375 73 C 176.75 71.480469 176.453125 69.972656 176.097656 68.511719 C 175.296875 65.207031 174.183594 62.042969 172.804688 59.09375 C 172.140625 57.660156 171.394531 56.25 170.578125 54.898438 C 165.878906 47.078125 159.140625 41.28125 151.089844 38.128906 C 145.214844 35.828125 138.964844 35.035156 132.515625 35.765625 C 130.402344 36.003906 128.253906 36.414062 126.140625 36.980469 C 124.777344 37.347656 123.371094 37.800781 121.964844 38.328125 C 121.847656 38.371094 121.777344 38.398438 121.699219 38.425781 L 121.570312 38.476562 C 118.542969 39.632812 115.523438 41.160156 112.625 43.003906 C 111.367188 43.800781 110.097656 44.691406 108.851562 45.640625 C 106.195312 47.679688 103.703125 49.957031 101.457031 52.410156 C 100.394531 53.554688 99.359375 54.769531 98.378906 56.035156 C 98.121094 56.347656 97.933594 56.59375 97.769531 56.824219 C 96.460938 58.542969 95.230469 60.367188 94.074219 62.292969 C 93.632812 63.003906 93.203125 63.757812 92.785156 64.53125 C 91.949219 66.046875 91.164062 67.625 90.445312 69.234375 C 90.066406 70.082031 89.695312 70.957031 89.351562 71.832031 L 89.152344 72.332031 C 88.453125 74.128906 87.84375 75.808594 87.289062 77.457031 C 86.929688 78.484375 86.578125 79.589844 86.199219 80.851562 C 85.628906 82.753906 85.105469 84.722656 84.652344 86.703125 L 84.511719 87.375 C 84.445312 87.6875 84.378906 88 84.3125 88.304688 C 83.960938 90.042969 83.695312 91.636719 83.503906 93.175781 C 83.027344 96.746094 82.886719 100.183594 83.089844 103.386719 C 83.121094 104.105469 83.1875 104.800781 83.253906 105.402344 Z M 154.070312 135.378906 C 153.808594 135.464844 153.515625 135.457031 153.25 135.351562 L 81.679688 107.402344 C 81.265625 107.242188 80.96875 106.859375 80.917969 106.417969 C 80.820312 105.644531 80.707031 104.609375 80.652344 103.527344 C 80.445312 100.183594 80.585938 96.59375 81.082031 92.867188 C 81.285156 91.277344 81.5625 89.625 81.925781 87.824219 C 81.992188 87.507812 82.0625 87.1875 82.128906 86.871094 L 82.273438 86.1875 C 82.746094 84.136719 83.277344 82.117188 83.863281 80.160156 C 84.253906 78.863281 84.617188 77.730469 84.984375 76.679688 C 85.542969 75.003906 86.167969 73.289062 86.890625 71.445312 L 87.085938 70.941406 C 87.441406 70.039062 87.824219 69.132812 88.222656 68.246094 C 88.964844 66.578125 89.78125 64.941406 90.640625 63.375 C 91.082031 62.570312 91.53125 61.785156 91.988281 61.035156 C 93.183594 59.042969 94.46875 57.144531 95.804688 55.394531 C 95.980469 55.15625 96.195312 54.867188 96.464844 54.53125 C 97.480469 53.226562 98.5625 51.953125 99.664062 50.773438 C 102 48.21875 104.597656 45.839844 107.371094 43.714844 C 108.675781 42.71875 110 41.796875 111.316406 40.960938 C 114.355469 39.023438 117.519531 37.425781 120.710938 36.207031 L 120.828125 36.160156 C 120.929688 36.121094 121.035156 36.082031 121.140625 36.046875 C 122.5625 35.511719 124.070312 35.023438 125.507812 34.636719 C 127.746094 34.035156 130.015625 33.605469 132.246094 33.351562 C 139.097656 32.578125 145.738281 33.421875 151.984375 35.871094 C 160.539062 39.21875 167.691406 45.363281 172.664062 53.644531 C 173.523438 55.074219 174.316406 56.558594 175.015625 58.066406 C 176.464844 61.15625 177.625 64.476562 178.464844 67.933594 C 178.835938 69.460938 179.148438 71.042969 179.386719 72.632812 C 179.910156 76.015625 180.136719 79.527344 180.054688 83.054688 C 179.976562 86.507812 179.613281 89.976562 178.964844 93.375 C 178.628906 95.136719 178.238281 96.84375 177.800781 98.433594 C 177.289062 100.300781 176.742188 102.007812 176.132812 103.664062 C 175.976562 104.101562 175.816406 104.546875 175.640625 104.988281 C 175.582031 105.15625 175.515625 105.332031 175.449219 105.492188 C 174.820312 107.085938 174.144531 108.65625 173.449219 110.171875 C 172.636719 111.925781 171.75 113.699219 170.796875 115.433594 C 168.992188 118.707031 167.046875 121.722656 165.011719 124.40625 C 161.816406 128.625 158.257812 132.25 154.441406 135.179688 C 154.328125 135.273438 154.203125 135.335938 154.070312 135.378906 " fill-opacity="1" fill-rule="nonzero"/></g></g></g><g clip-path="url(#5074f99a30)"><g clip-path="url(#44ba68a95a)"><g clip-path="url(#763ad7066d)"><path fill="#ffffff" d="M 104.09375 130.453125 C 104.84375 126.734375 117.917969 120.25 117.917969 120.25 C 117.917969 120.25 123.527344 133.378906 121.335938 137.136719 C 108.992188 158.257812 110.558594 171.578125 108.082031 177.890625 C 106.558594 181.773438 95.335938 177.386719 95.335938 177.386719 C 95.335938 177.386719 84.113281 173.003906 85.652344 169.128906 C 88.160156 162.832031 99.25 154.402344 104.09375 130.453125 " fill-opacity="1" fill-rule="nonzero"/></g></g></g><g clip-path="url(#8bbc15bb9f)"><g clip-path="url(#f3df38b4e6)"><g clip-path="url(#ab8ba2cb5c)"><path fill="#000000" d="M 117.296875 121.929688 C 112.199219 124.578125 105.6875 128.6875 105.289062 130.6875 C 101.789062 147.996094 95.050781 157.355469 90.589844 163.542969 C 88.839844 165.976562 87.457031 167.902344 86.789062 169.578125 C 86.722656 169.734375 86.671875 169.976562 86.847656 170.378906 C 87.761719 172.472656 92.816406 175.097656 95.78125 176.253906 C 97.796875 177.039062 103.574219 178.898438 106.125 178.082031 C 106.78125 177.875 106.902344 177.566406 106.949219 177.449219 C 107.613281 175.753906 107.980469 173.417969 108.445312 170.46875 C 109.613281 163.015625 111.382812 151.75 120.28125 136.523438 C 121.488281 134.464844 119.386719 127.144531 117.296875 121.929688 Z M 106.863281 180.394531 C 103.03125 181.621094 95.710938 178.839844 94.890625 178.515625 C 94.007812 178.171875 86.21875 175.042969 84.609375 171.347656 C 84.21875 170.449219 84.1875 169.527344 84.523438 168.6875 C 85.300781 166.730469 86.761719 164.703125 88.613281 162.128906 C 92.949219 156.113281 99.503906 147.011719 102.894531 130.214844 C 103.726562 126.121094 115.109375 120.289062 117.378906 119.164062 C 117.679688 119.011719 118.027344 118.996094 118.34375 119.109375 C 118.65625 119.226562 118.90625 119.464844 119.042969 119.773438 C 120.019531 122.058594 124.769531 133.671875 122.386719 137.742188 C 113.726562 152.570312 111.996094 163.566406 110.855469 170.839844 C 110.363281 173.9375 109.980469 176.382812 109.21875 178.328125 C 108.949219 179.015625 108.320312 179.929688 106.863281 180.394531 " fill-opacity="1" fill-rule="nonzero"/></g></g></g><g clip-path="url(#2fe23016da)"><g clip-path="url(#a7b2f99564)"><g clip-path="url(#ac927b4e29)"><path fill="#000000" d="M 105.660156 137.5 L 115.210938 141.234375 C 106.710938 157.972656 106.496094 167.929688 104.511719 172.976562 C 103.25 176.1875 96.804688 173.671875 96.804688 173.671875 C 96.804688 173.671875 90.359375 171.152344 91.632812 167.949219 C 93.609375 162.976562 100.429688 155.054688 105.660156 137.5 " fill-opacity="1" fill-rule="nonzero"/></g></g></g><g clip-path="url(#2232ab3b7b)"><g clip-path="url(#066b75acb6)"><g clip-path="url(#d8676daeff)"><path fill="#ffffff" d="M 106.5 70.824219 C 108.648438 77.546875 115.863281 81.25 122.617188 79.09375 C 129.371094 76.9375 133.105469 69.734375 130.957031 63.011719 C 128.808594 56.289062 121.59375 52.585938 114.84375 54.742188 C 108.085938 56.898438 104.351562 64.097656 106.5 70.824219 " fill-opacity="1" fill-rule="nonzero"/></g></g></g><g clip-path="url(#b291deadeb)"><g clip-path="url(#b70fac670b)"><g clip-path="url(#1100996041)"><path fill="#000000" d="M 115.210938 55.898438 C 109.109375 57.847656 105.71875 64.375 107.660156 70.453125 C 109.601562 76.527344 116.148438 79.886719 122.25 77.9375 C 128.351562 75.988281 131.738281 69.457031 129.796875 63.382812 C 127.855469 57.304688 121.3125 53.949219 115.210938 55.898438 Z M 122.988281 80.25 C 115.605469 82.605469 107.6875 78.546875 105.339844 71.195312 C 102.988281 63.839844 107.089844 55.941406 114.472656 53.585938 C 121.851562 51.226562 129.769531 55.289062 132.117188 62.640625 C 134.464844 69.992188 130.367188 77.890625 122.988281 80.25 " fill-opacity="1" fill-rule="nonzero"/></g></g></g><g clip-path="url(#99fafa043f)"><g clip-path="url(#a4f382a3fe)"><g clip-path="url(#621421ede1)"><path fill="#ffffff" d="M 131.238281 56.210938 L 135.464844 46.351562 L 139.4375 47.378906 L 132.921875 57.070312 L 131.238281 56.210938 " fill-opacity="1" fill-rule="nonzero"/></g></g></g><g clip-path="url(#e94a12bf1c)"><g clip-path="url(#e0ea17b1f7)"><g clip-path="url(#9ba34cdae7)"><path fill="#ffffff" d="M 137.828125 62.429688 L 147.105469 53.4375 L 150.015625 56.671875 L 138.949219 63.683594 L 137.828125 62.429688 " fill-opacity="1" fill-rule="nonzero"/></g></g></g><g clip-path="url(#a4ff3c94b8)"><g clip-path="url(#a33e8fb54c)"><g clip-path="url(#39e2a06740)"><path fill="#ffffff" d="M 122.085938 83.511719 L 118.410156 96.574219 L 115.792969 92.644531 L 119.824219 83.382812 L 122.085938 83.511719 " fill-opacity="1" fill-rule="nonzero"/></g></g></g><g clip-path="url(#0dec835f87)"><g clip-path="url(#860b1d8e84)"><g clip-path="url(#c748de0c71)"><path fill="#ffffff" d="M 114.648438 82.65625 L 106.667969 87.585938 L 108.792969 89.796875 Z M 114.648438 82.65625 " fill-opacity="1" fill-rule="nonzero"/></g></g></g><g clip-path="url(#9add72b874)"><g clip-path="url(#169d558d6a)"><g clip-path="url(#1cc64e889a)"><path fill="#ffffff" d="M 130.433594 79.234375 L 135.6875 87.738281 L 130.664062 85.679688 Z M 130.433594 79.234375 " fill-opacity="1" fill-rule="nonzero"/></g></g></g><g clip-path="url(#6bf75add37)"><g clip-path="url(#5deb36f907)"><g clip-path="url(#b7968c05fa)"><path fill="#ffffff" d="M 136.277344 71.335938 L 147.347656 65.421875 L 149.023438 70.660156 L 136.277344 71.335938 " fill-opacity="1" fill-rule="nonzero"/></g></g></g><g fill="#ffffff" fill-opacity="1"><g transform="translate(192.371817, 147.062523)"><g><path d="M 85.558594 -103.394531 L 68.886719 -103.394531 C 67.984375 -103.394531 67.335938 -102.75 67.335938 -102.234375 L 67.335938 -34.894531 L 19.644531 -103.007812 C 19.515625 -103.265625 18.742188 -103.394531 18.480469 -103.394531 L 1.292969 -103.394531 C 0.644531 -103.394531 0 -102.75 0 -102.234375 L 0 -24.816406 L 19.773438 -24.816406 L 19.773438 -68.5 L 67.335938 -0.386719 C 67.464844 -0.128906 68.242188 0 68.5 0 L 85.558594 0 C 86.464844 0 86.980469 -0.644531 86.980469 -1.164062 L 86.980469 -102.234375 C 86.980469 -102.75 86.464844 -103.394531 85.558594 -103.394531 Z M 85.558594 -103.394531 "/></g></g></g><g fill="#ffffff" fill-opacity="1"><g transform="translate(292.659271, 147.062523)"><g><path d="M 78.839844 -84.398438 L 78.839844 -102.234375 C 78.839844 -102.75 78.324219 -103.394531 77.417969 -103.394531 L 60.617188 -103.394531 C 34.894531 -103.394531 0 -95.898438 0 -51.699219 C 0 -5.816406 35.285156 0 60.617188 0 L 77.417969 0 C 78.324219 0 78.839844 -0.644531 78.839844 -1.164062 L 78.839844 -64.492188 L 39.160156 -64.492188 L 39.160156 -44.71875 L 59.066406 -44.71875 L 59.066406 -18.871094 C 36.578125 -17.707031 19.902344 -27.140625 19.902344 -51.699219 C 19.902344 -83.621094 46.527344 -84.914062 59.066406 -84.398438 Z M 78.839844 -84.398438 "/></g></g></g><g fill="#000000" fill-opacity="1"><g transform="translate(186.659624, 141.350336)"><g><path d="M 85.558594 -103.394531 L 68.886719 -103.394531 C 67.984375 -103.394531 67.335938 -102.75 67.335938 -102.234375 L 67.335938 -34.894531 L 19.644531 -103.007812 C 19.515625 -103.265625 18.742188 -103.394531 18.480469 -103.394531 L 1.292969 -103.394531 C 0.644531 -103.394531 0 -102.75 0 -102.234375 L 0 -24.816406 L 19.773438 -24.816406 L 19.773438 -68.5 L 67.335938 -0.386719 C 67.464844 -0.128906 68.242188 0 68.5 0 L 85.558594 0 C 86.464844 0 86.980469 -0.644531 86.980469 -1.164062 L 86.980469 -102.234375 C 86.980469 -102.75 86.464844 -103.394531 85.558594 -103.394531 Z M 85.558594 -103.394531 "/></g></g></g><g fill="#000000" fill-opacity="1"><g transform="translate(286.947078, 141.350336)"><g><path d="M 78.839844 -84.398438 L 78.839844 -102.234375 C 78.839844 -102.75 78.324219 -103.394531 77.417969 -103.394531 L 60.617188 -103.394531 C 34.894531 -103.394531 0 -95.898438 0 -51.699219 C 0 -5.816406 35.285156 0 60.617188 0 L 77.417969 0 C 78.324219 0 78.839844 -0.644531 78.839844 -1.164062 L 78.839844 -64.492188 L 39.160156 -64.492188 L 39.160156 -44.71875 L 59.066406 -44.71875 L 59.066406 -18.871094 C 36.578125 -17.707031 19.902344 -27.140625 19.902344 -51.699219 C 19.902344 -83.621094 46.527344 -84.914062 59.066406 -84.398438 Z M 78.839844 -84.398438 "/></g></g></g></svg>