<svg xmlns="http://www.w3.org/2000/svg" xmlns:xlink="http://www.w3.org/1999/xlink" zoomAndPan="magnify" viewBox="0 0 375 374.999991" preserveAspectRatio="xMidYMid meet" version="1.0"><defs><clipPath id="10e183fc90"><path d="M 102.300781 0 L 270 0 L 270 375 L 102.300781 375 Z M 102.300781 0 " clip-rule="nonzero"/></clipPath><clipPath id="3f9bb77f07"><path d="M 153.613281 156.085938 L 273.050781 156.085938 L 273.050781 295 L 153.613281 295 Z M 153.613281 156.085938 " clip-rule="nonzero"/></clipPath></defs><g clip-path="url(#10e183fc90)"><path fill="#000000" d="M 160.515625 234.972656 L 126.109375 236.195312 L 109.4375 110.144531 L 137.082031 109.160156 C 139.125 137.804688 142.550781 180.3125 144.441406 208.722656 L 150.09375 208.519531 C 158.359375 180.988281 176.402344 135.203125 186.375 107.410156 L 218.511719 106.304688 C 198.644531 149.167969 179.332031 192.285156 160.539062 235.628906 Z M 137.011719 305.859375 C 184.355469 205.285156 229.605469 103.628906 269.855469 0 C 252.996094 33.011719 237.089844 66.492188 221.414062 100.066406 L 221.410156 99.929688 L 181.9375 101.289062 C 174.339844 122.339844 156.445312 169.3125 149.4375 190.035156 C 148.074219 170.234375 144.289062 122.910156 142.902344 102.679688 L 102.300781 104.121094 L 120.625 242.667969 L 158.070312 241.335938 C 139.019531 285.585938 120.308594 329.996094 103.101562 375 C 114.8125 352.152344 125.976562 329.035156 137.011719 305.859375 " fill-opacity="1" fill-rule="nonzero"/></g><g clip-path="url(#3f9bb77f07)"><path fill="#000000" d="M 270.78125 167.207031 C 254.714844 156.679688 229.628906 153.535156 211.332031 159.199219 L 213.222656 165.175781 C 225.941406 159.476562 257.320312 164.867188 264.910156 170.882812 L 254.628906 190.996094 C 248.324219 186.683594 228.78125 180.925781 220.066406 186.410156 C 211.597656 190.648438 211.003906 201.480469 216.890625 207.285156 C 223.566406 215.179688 238.933594 225.25 243.105469 234.71875 C 249.613281 246.035156 246.265625 260.796875 239.851562 270.710938 C 224.835938 295.5625 180.378906 290.523438 161.933594 278.980469 L 171.449219 258.332031 C 181.019531 263.929688 193.632812 268.3125 204.941406 266.929688 C 216.882812 265.664062 222.664062 252.367188 214.753906 242.976562 C 208.484375 235.480469 193.140625 224.957031 189.230469 216.527344 L 183.804688 219.691406 C 187.738281 228.3125 203.050781 239.316406 209.789062 246.8125 C 213 250.65625 212.976562 255.78125 209.214844 258.699219 C 197.546875 265.261719 178.589844 256.28125 168.847656 248.957031 L 153.992188 281.210938 C 185.871094 303.769531 247.148438 301.304688 252.652344 253.230469 C 256.550781 220.785156 222.171875 212.96875 219.191406 197.28125 C 221.140625 183.4375 250.984375 194.371094 254.074219 198.046875 C 254.074219 198.042969 257.03125 200.09375 257.03125 200.09375 L 273.050781 168.765625 L 270.78125 167.207031 " fill-opacity="1" fill-rule="nonzero"/></g><path fill="#000000" d="M 153.964844 300.851562 C 142.542969 322.144531 132.4375 344.277344 125.132812 367.328125 C 132.382812 355.550781 138.441406 343.066406 144.175781 330.496094 C 149.808594 317.878906 155.15625 305.082031 159.203125 291.855469 C 157.351562 294.796875 155.648438 297.816406 153.964844 300.851562 " fill-opacity="1" fill-rule="nonzero"/><path fill="#000000" d="M 214.75 86.558594 C 226.179688 65.269531 236.257812 43.121094 243.582031 20.078125 C 236.339844 31.867188 230.277344 44.339844 224.539062 56.914062 C 218.902344 69.523438 213.546875 82.324219 209.507812 95.550781 C 211.363281 92.609375 213.070312 89.59375 214.75 86.558594 " fill-opacity="1" fill-rule="nonzero"/></svg>